<svg xmlns="http://www.w3.org/2000/svg" viewBox="0 0 16 16" fill="#000000" id="Moon-Stars-Thin--Streamline-Phosphor-Thin" height="16" width="16">
  <desc>
    Moon Stars Thin Streamline Icon: https://streamlinehq.com
  </desc>
  <path d="M15.84 5.8049c0 0.17321875 -0.14043125 0.31364375 -0.31365 0.31365h-1.56824375v1.56824375c-0.00034375 0.24145 -0.26193125 0.39198125 -0.47085625 0.2709625 -0.09669375 -0.05600625 -0.1562875 -0.15921875 -0.15644375 -0.2709625V6.11855H11.7625625c-0.24145 -0.00034375 -0.39198125 -0.26193125 -0.2709625 -0.47085625 0.05600625 -0.09669375 0.15921875 -0.1562875 0.2709625 -0.15644375h1.56824375V3.92300625c0.00034375 -0.24145 0.26193125 -0.39198125 0.47085625 -0.2709625 0.09669375 0.05600625 0.1562875 0.159225 0.15644375 0.2709625V5.49125h1.56824375c0.17321875 0.00000625 0.31365 0.14043125 0.31365 0.31365ZM8.62606875 2.35475625h0.94095v0.94095c0.0003375 0.24145 0.261925 0.39198125 0.47085625 0.2709625 0.0966875 -0.05600625 0.15628125 -0.159225 0.15644375 -0.2709625V2.3547625h0.94094375c0.24145 -0.00034375 0.39198125 -0.26193125 0.2709625 -0.4708625 -0.05600625 -0.0966875 -0.159225 -0.15628125 -0.2709625 -0.1564375h-0.94094375V0.7865125c-0.00034375 -0.24144375 -0.26193125 -0.39198125 -0.4708625 -0.2709625 -0.0966875 0.05600625 -0.15628125 0.159225 -0.1564375 0.2709625v0.94095h-0.94095c-0.24144375 0.0003375 -0.39198125 0.261925 -0.2709625 0.47085625 0.05600625 0.09669375 0.159225 0.15628125 0.2709625 0.15644375Zm5.4676875 8.12194375c0.07421875 0.08665 0.09554375 0.20675625 0.055675 0.31365 -1.90716875 5.215525 -8.74511875 6.4106625 -12.3083125 2.15124375C-1.36574375 9.10813125 0.202825 3.25415 4.89678125 1.53770625c0.2269125 -0.0825125 0.45805 0.11155625 0.41605625 0.34931875 -0.00039375 0.00223125 -0.0008125 0.00445 -0.00125625 0.00666875 -0.0902625 0.46188125 -0.13569375 0.9314 -0.13565 1.4020125 0.00431875 3.98235 3.231575 7.20960625 7.21393125 7.21393125 0.471425 -0.00006875 0.9417375 -0.0457625 1.4043625 -0.1364375 0.1112125 -0.0221875 0.22574375 0.0173875 0.29953125 0.10350625Zm-0.741775 0.601425C8.28553125 11.70484375 3.980725 7.4000375 4.60744375 2.3335875 0.00635625 4.46405 -0.56303125 10.7764125 3.58254375 13.6958375c3.360025 2.366225 8.042675 1.1115125 9.7694375 -2.6177125Z" stroke-width="0.0625"></path>
</svg>